<?xml version="1.0" encoding="utf-8"?>
<!-- Generator: Adobe Illustrator 22.0.0, SVG Export Plug-In . SVG Version: 6.00 Build 0)  -->
<svg version="1.1" xmlns="http://www.w3.org/2000/svg" xmlns:xlink="http://www.w3.org/1999/xlink" x="0px" y="0px"
	 viewBox="0 0 94.2 84.9" style="enable-background:new 0 0 94.2 84.9;" xml:space="preserve">
<style type="text/css">
	.st0{fill:#FFFFFF;}
	.st1{fill:#F5F7F9;}
	.st2{fill:#BBD792;}
	.st3{opacity:0.8;}
	.st4{fill:#262626;}
	.st5{fill:#383838;}
	.st6{opacity:0.85;}
	.st7{fill:#3BACE2;}
	.st8{fill:none;stroke:#3BACE2;stroke-miterlimit:10;}
	.st9{enable-background:new    ;}
	.st10{fill:#0075FB;}
	.st11{fill:#8DBC4A;}
	.st12{opacity:0.75;fill:#FFFFFF;stroke:#FFFFFF;stroke-miterlimit:10;}
	.st13{opacity:0.8;fill:#262626;}
	.st14{fill:#DB9FF4;}
	.st15{fill:#06B295;}
	.st16{opacity:0.7;fill:#FFFFFF;}
	.st17{fill:none;stroke:#3BACE2;stroke-width:2;stroke-miterlimit:10;}
	.st18{fill:#FFFFFF;stroke:#3BACE2;stroke-miterlimit:10;}
	.st19{fill:none;stroke:#3BACE2;stroke-width:1.7755;stroke-miterlimit:10;}
	.st20{fill:#FFFFFF;stroke:#3BACE2;stroke-width:1.7755;stroke-miterlimit:10;}
	.st21{opacity:0.97;fill:#383838;}
	.st22{fill:none;stroke:#386BB2;stroke-linecap:round;stroke-linejoin:round;stroke-miterlimit:10;}
	.st23{fill:#273270;}
	.st24{fill:#7C797C;}
	.st25{fill:#4B51BC;}
	.st26{fill:#FFFFFF;stroke:#3BACE2;stroke-width:1.7959;stroke-miterlimit:10;}
	.st27{clip-path:url(#SVGID_2_);}
	.st28{clip-path:url(#SVGID_4_);}
	.st29{fill:#FFFFFF;stroke:#3BACE2;stroke-width:2;stroke-miterlimit:10;}
	.st30{clip-path:url(#SVGID_6_);}
	.st31{opacity:0.6;fill:#2B2B2A;}
	.st32{opacity:0.6;}
	.st33{opacity:0.99;fill:#FFFFFF;stroke:#FFFFFF;stroke-miterlimit:10;}
	.st34{opacity:0.4;}
	.st35{fill:url(#SVGID_7_);}
	.st36{fill:url(#SVGID_8_);}
	.st37{fill:url(#SVGID_9_);}
	.st38{fill:url(#SVGID_10_);}
	.st39{clip-path:url(#SVGID_12_);}
	.st40{clip-path:url(#SVGID_16_);}
	.st41{clip-path:url(#SVGID_20_);}
	.st42{clip-path:url(#SVGID_24_);}
	.st43{clip-path:url(#SVGID_28_);}
	.st44{clip-path:url(#SVGID_32_);}
	.st45{clip-path:url(#SVGID_36_);}
	.st46{clip-path:url(#SVGID_40_);}
	.st47{display:none;}
</style>
<g id="Layer_1">
	<g id="Layer_2">
	</g>
	<g>
		<g>
			<g>
				<g>
					<path class="st7" d="M91.5,72.9h-0.3c-0.7,0-1.2-0.5-1.2-1.2V23.1c0-3.1-2.7-5.5-6.1-5.5h-7.9c-0.7,0-1.2-0.5-1.2-1.2V6.5
						C74.7,3.5,72,1,68.6,1H44.8c-0.7,0-1.3,0.6-1.2,1.4c0,0.1,0,0.1,0,0.2c0,0.7,0.6,1.2,1.2,1.2h23.8c1.7,0,3.1,1.2,3.1,2.8v4.3
						c0,0.7-0.6,1.2-1.2,1.2H23.9c-0.7,0-1.2-0.5-1.2-1.2V6.5c0-1.5,1.4-2.8,3.1-2.8h13.7c0.7,0,1.2-0.5,1.2-1.2c0-0.1,0-0.1,0-0.2
						C40.8,1.6,40.2,1,39.4,1H25.7c-3.4,0-6.1,2.5-6.1,5.5v9.8c0,0.7-0.6,1.2-1.2,1.2h-7.9c-3.4,0-6.1,2.5-6.1,5.5v48.6
						c0,0.7-0.6,1.2-1.2,1.2H2.8c-0.8,0-1.5,0.6-1.5,1.4v4.2C1.3,81.5,4,84,7.4,84h79.6c3.4,0,6.1-2.5,6.1-5.5v-4.2
						C93.1,73.6,92.4,72.9,91.5,72.9z M23.9,14.8h46.5c0.7,0,1.2,0.5,1.2,1.2v38.9c0,1.5-1.4,2.8-3.1,2.8H25.7
						c-1.7,0-3.1-1.2-3.1-2.8V16.1C22.7,15.4,23.2,14.8,23.9,14.8z M25.7,60.5h42.8c3.4,0,6.1-2.5,6.1-5.5V27.1
						c0-0.7,0.6-1.2,1.2-1.2h3.6c0.7,0,1.2,0.5,1.2,1.2v36.3c0,0.7-0.6,1.2-1.2,1.2H14.7c-0.7,0-1.2-0.5-1.2-1.2V27.1
						c0-0.7,0.6-1.2,1.2-1.2h3.6c0.7,0,1.2,0.5,1.2,1.2v27.8C19.6,58,22.4,60.5,25.7,60.5z M7.4,23.1c0-1.5,1.4-2.8,3.1-2.8h7.9
						c0.7,0,1.2,0.5,1.2,1.2v0.3c0,0.7-0.6,1.2-1.2,1.2H12c-0.8,0-1.5,0.6-1.5,1.4V66c0,0.8,0.7,1.4,1.5,1.4h70.4
						c0.8,0,1.5-0.6,1.5-1.4V24.5c0-0.8-0.7-1.4-1.5-1.4h-6.4c-0.7,0-1.2-0.5-1.2-1.2v-0.3c0-0.7,0.6-1.2,1.2-1.2h7.9
						c1.7,0,3.1,1.2,3.1,2.8v48.6c0,0.7-0.6,1.2-1.2,1.2H60.9c-0.4,0-0.8,0.1-1.1,0.4l-2.3,2c-0.2,0.2-0.5,0.3-0.8,0.3H37.6
						c-0.3,0-0.6-0.1-0.8-0.3l-2.3-2c-0.3-0.3-0.7-0.4-1.1-0.4H8.6c-0.7,0-1.2-0.5-1.2-1.2V23.1z M90,78.5c0,1.5-1.4,2.8-3.1,2.8
						H7.4c-1.7,0-3.1-1.2-3.1-2.8v-1.5c0-0.7,0.6-1.2,1.2-1.2h26.7c0.3,0,0.6,0.1,0.8,0.3l2.3,2c0.3,0.3,0.7,0.4,1.1,0.4h21.4
						c0.4,0,0.8-0.1,1.1-0.4l2.3-2c0.2-0.2,0.5-0.3,0.8-0.3h26.7c0.7,0,1.2,0.5,1.2,1.2V78.5z"/>
				</g>
			</g>
			<g>
				<g>
					<rect x="27.5" y="45.3" class="st7" width="40.1" height="2.8"/>
				</g>
			</g>
			<g>
				<g>
					<rect x="27.5" y="50.8" class="st7" width="37" height="2.8"/>
				</g>
			</g>
			<g>
				<g>
					<rect x="36.7" y="39.7" class="st7" width="30.9" height="2.8"/>
				</g>
			</g>
			<g>
				<g>
					<rect x="30.6" y="39.7" class="st7" width="3.1" height="2.8"/>
				</g>
			</g>
			<g>
				<g>
					<path class="st7" d="M42.3,24.2L40.5,22l-6.2,4.1c-0.7,0.5-0.8,1.3-0.3,1.9c0.1,0.1,0.2,0.2,0.3,0.3l6.2,4.1l1.9-2.2l-4.5-3
						L42.3,24.2z"/>
				</g>
			</g>
			<g>
				<g>
					<path class="st7" d="M61.1,26.5c-0.1-0.1-0.2-0.2-0.3-0.3L54.7,22l-1.9,2.2l4.5,3l-4.5,3l1.9,2.2l6.2-4.1
						C61.5,27.9,61.6,27.1,61.1,26.5z"/>
				</g>
			</g>
			<g>
				<g>
					<polygon class="st7" points="43,33.7 49.2,19.9 52.1,20.9 45.9,34.7 					"/>
				</g>
			</g>
			<path class="st7" d="M24.7,7.7c0,0.8,0.6,1.4,1.4,1.4c0.8,0,1.4-0.6,1.4-1.4c0-0.8-0.6-1.4-1.4-1.4C25.3,6.3,24.7,6.9,24.7,7.7z
				 M26.5,7.7c0,0.2-0.2,0.4-0.4,0.4c-0.2,0-0.4-0.2-0.4-0.4c0-0.2,0.2-0.4,0.4-0.4C26.3,7.3,26.5,7.5,26.5,7.7z"/>
			<path class="st7" d="M28.2,7.7c0,0.8,0.6,1.4,1.4,1.4c0.8,0,1.4-0.6,1.4-1.4c0-0.8-0.6-1.4-1.4-1.4C28.8,6.3,28.2,6.9,28.2,7.7z
				 M30,7.7c0,0.2-0.2,0.4-0.4,0.4c-0.2,0-0.4-0.2-0.4-0.4c0-0.2,0.2-0.4,0.4-0.4C29.8,7.3,30,7.5,30,7.7z"/>
			<path class="st7" d="M31.7,7.7c0,0.8,0.6,1.4,1.4,1.4c0.8,0,1.4-0.6,1.4-1.4c0-0.8-0.6-1.4-1.4-1.4C32.4,6.3,31.7,6.9,31.7,7.7z
				 M33.6,7.7c0,0.2-0.2,0.4-0.4,0.4c-0.2,0-0.4-0.2-0.4-0.4c0-0.2,0.2-0.4,0.4-0.4C33.4,7.3,33.6,7.5,33.6,7.7z"/>
		</g>
	</g>
</g>
<g id="Layer_3" class="st47">
</g>
</svg>
