<?xml version="1.0" encoding="utf-8"?>
<!-- Generator: Adobe Illustrator 22.0.0, SVG Export Plug-In . SVG Version: 6.00 Build 0)  -->
<svg version="1.1" xmlns="http://www.w3.org/2000/svg" xmlns:xlink="http://www.w3.org/1999/xlink" x="0px" y="0px"
	 viewBox="0 0 83.5 84.9" style="enable-background:new 0 0 83.5 84.9;" xml:space="preserve">
<style type="text/css">
	.st0{fill:#FFFFFF;}
	.st1{fill:#F5F7F9;}
	.st2{fill:#BBD792;}
	.st3{opacity:0.8;}
	.st4{fill:#262626;}
	.st5{fill:#383838;}
	.st6{opacity:0.85;}
	.st7{fill:#3BACE2;}
	.st8{fill:none;stroke:#3BACE2;stroke-miterlimit:10;}
	.st9{enable-background:new    ;}
	.st10{fill:#0075FB;}
	.st11{fill:#8DBC4A;}
	.st12{opacity:0.75;fill:#FFFFFF;stroke:#FFFFFF;stroke-miterlimit:10;}
	.st13{opacity:0.8;fill:#262626;}
	.st14{fill:#DB9FF4;}
	.st15{fill:#06B295;}
	.st16{opacity:0.7;fill:#FFFFFF;}
	.st17{fill:none;stroke:#3BACE2;stroke-width:2;stroke-miterlimit:10;}
	.st18{fill:#FFFFFF;stroke:#3BACE2;stroke-miterlimit:10;}
	.st19{fill:none;stroke:#3BACE2;stroke-width:1.7755;stroke-miterlimit:10;}
	.st20{fill:#FFFFFF;stroke:#3BACE2;stroke-width:1.7755;stroke-miterlimit:10;}
	.st21{opacity:0.97;fill:#383838;}
	.st22{fill:none;stroke:#386BB2;stroke-linecap:round;stroke-linejoin:round;stroke-miterlimit:10;}
	.st23{fill:#273270;}
	.st24{fill:#7C797C;}
	.st25{fill:#4B51BC;}
	.st26{fill:#FFFFFF;stroke:#3BACE2;stroke-width:1.7959;stroke-miterlimit:10;}
	.st27{clip-path:url(#SVGID_2_);}
	.st28{clip-path:url(#SVGID_4_);}
	.st29{fill:#FFFFFF;stroke:#3BACE2;stroke-width:2;stroke-miterlimit:10;}
	.st30{clip-path:url(#SVGID_6_);}
	.st31{opacity:0.6;fill:#2B2B2A;}
	.st32{opacity:0.6;}
	.st33{opacity:0.99;fill:#FFFFFF;stroke:#FFFFFF;stroke-miterlimit:10;}
	.st34{opacity:0.4;}
	.st35{fill:url(#SVGID_7_);}
	.st36{fill:url(#SVGID_8_);}
	.st37{fill:url(#SVGID_9_);}
	.st38{fill:url(#SVGID_10_);}
	.st39{clip-path:url(#SVGID_12_);}
	.st40{clip-path:url(#SVGID_16_);}
	.st41{clip-path:url(#SVGID_20_);}
	.st42{clip-path:url(#SVGID_24_);}
	.st43{clip-path:url(#SVGID_28_);}
	.st44{clip-path:url(#SVGID_32_);}
	.st45{clip-path:url(#SVGID_36_);}
	.st46{clip-path:url(#SVGID_40_);}
	.st47{display:none;}
</style>
<g id="Layer_1">
	<g id="Layer_2">
	</g>
	<g>
		<g>
			<path class="st7" d="M2.2,17.5C1.5,17.5,1,17,1,16.3v-10C1,3.4,3.3,1,6.2,1h25.4c0.7,0,1.2,0.5,1.2,1.2c0,0.7-0.5,1.2-1.2,1.2
				H6.2c-1.6,0-2.9,1.3-2.9,2.9v10C3.4,17,2.8,17.5,2.2,17.5z"/>
			<path class="st7" d="M6.4,9.2c0,1.4,1.2,2.6,2.6,2.6c1.4,0,2.6-1.2,2.6-2.6c0-1.4-1.2-2.6-2.6-2.6C7.6,6.6,6.4,7.8,6.4,9.2z
				 M9.8,9.2c0,0.5-0.4,0.8-0.8,0.8c-0.5,0-0.8-0.4-0.8-0.8c0-0.5,0.4-0.8,0.8-0.8C9.5,8.4,9.8,8.8,9.8,9.2z"/>
			<path class="st7" d="M13,9.2c0,1.4,1.2,2.6,2.6,2.6s2.6-1.2,2.6-2.6c0-1.4-1.2-2.6-2.6-2.6C14.2,6.6,13,7.8,13,9.2z M16.4,9.2
				c0,0.5-0.4,0.8-0.8,0.8c-0.5,0-0.8-0.4-0.8-0.8c0-0.5,0.4-0.8,0.8-0.8C16.1,8.4,16.4,8.8,16.4,9.2z"/>
			<path class="st7" d="M19.6,9.2c0,1.4,1.2,2.6,2.6,2.6c1.4,0,2.6-1.2,2.6-2.6c0-1.4-1.2-2.6-2.6-2.6C20.8,6.6,19.6,7.8,19.6,9.2z
				 M23,9.2c0,0.5-0.4,0.8-0.8,0.8c-0.5,0-0.8-0.4-0.8-0.8c0-0.5,0.4-0.8,0.8-0.8C22.7,8.4,23,8.8,23,9.2z"/>
			<path class="st7" d="M77.7,1H39.2C38.5,1,38,1.5,38,2.2c0,0.7,0.5,1.2,1.2,1.2h38.5c1.6,0,2.9,1.3,2.9,2.9v8.8H3.4V6.4
				c0-1.6,1.3-2.9,2.9-2.9h25.4c0.7,0,1.2-0.5,1.2-1.2c0-0.7-0.5-1.2-1.2-1.2H6.2C3.3,1,1,3.4,1,6.4v72.3c0,3,2.4,5.4,5.3,5.4h71.4
				c2.9,0,5.3-2.4,5.3-5.4V6.4C83,3.4,80.6,1,77.7,1z M80.6,78.6c0,1.6-1.3,2.9-2.9,2.9H6.2c-1.6,0-2.9-1.3-2.9-2.9V17.5h77.2V78.6z
				"/>
			<path class="st7" d="M7.4,30.7c0.7,0,1.2-0.5,1.2-1.2v-1.8c0-0.6,0.2-1.2,0.5-1.7c0.4-0.6,0.2-1.3-0.3-1.7
				c-0.6-0.4-1.3-0.2-1.7,0.3c-0.6,0.9-0.9,2-0.9,3.1v1.8C6.2,30.2,6.7,30.7,7.4,30.7z"/>
			<path class="st7" d="M10.8,76.3c0.3,0,0.6,0.1,0.9,0.1h3.6c0.7,0,1.2-0.5,1.2-1.2c0-0.7-0.5-1.2-1.2-1.2h-3.6c-0.2,0-0.3,0-0.5,0
				c-0.7-0.1-1.3,0.3-1.4,1C9.7,75.6,10.2,76.2,10.8,76.3z"/>
			<path class="st7" d="M11.7,24.6H16c0.7,0,1.2-0.5,1.2-1.2c0-0.7-0.5-1.2-1.2-1.2h-4.3c-0.7,0-1.2,0.5-1.2,1.2
				C10.5,24,11.1,24.6,11.7,24.6z"/>
			<path class="st7" d="M19.5,76.4h4.3c0.7,0,1.2-0.5,1.2-1.2c0-0.7-0.5-1.2-1.2-1.2h-4.3c-0.7,0-1.2,0.5-1.2,1.2
				C18.3,75.8,18.9,76.4,19.5,76.4z"/>
			<path class="st7" d="M20.2,24.6h4.3c0.7,0,1.2-0.5,1.2-1.2c0-0.7-0.5-1.2-1.2-1.2h-4.3c-0.7,0-1.2,0.5-1.2,1.2
				C19,24,19.6,24.6,20.2,24.6z"/>
			<path class="st7" d="M7.4,39.4c0.7,0,1.2-0.5,1.2-1.2v-4.3c0-0.7-0.5-1.2-1.2-1.2c-0.7,0-1.2,0.5-1.2,1.2v4.3
				C6.2,38.8,6.7,39.4,7.4,39.4z"/>
			<path class="st7" d="M7.8,73.8c0.2,0,0.3,0,0.5-0.1c0.6-0.3,0.9-1,0.6-1.6c-0.2-0.4-0.3-0.8-0.3-1.3v-2.5c0-0.7-0.5-1.2-1.2-1.2
				c-0.7,0-1.2,0.5-1.2,1.2v2.5c0,0.8,0.2,1.6,0.5,2.3C6.9,73.5,7.3,73.8,7.8,73.8z"/>
			<path class="st7" d="M28.1,76.4h4.3c0.7,0,1.2-0.5,1.2-1.2c0-0.7-0.5-1.2-1.2-1.2h-4.3c-0.7,0-1.2,0.5-1.2,1.2
				C26.9,75.8,27.4,76.4,28.1,76.4z"/>
			<path class="st7" d="M7.4,48c0.7,0,1.2-0.5,1.2-1.2v-4.3c0-0.7-0.5-1.2-1.2-1.2c-0.7,0-1.2,0.5-1.2,1.2v4.3
				C6.2,47.4,6.7,48,7.4,48z"/>
			<path class="st7" d="M7.4,65.2c0.7,0,1.2-0.5,1.2-1.2v-4.3c0-0.7-0.5-1.2-1.2-1.2c-0.7,0-1.2,0.5-1.2,1.2V64
				C6.2,64.7,6.7,65.2,7.4,65.2z"/>
			<path class="st7" d="M7.4,56.6c0.7,0,1.2-0.5,1.2-1.2v-4.3c0-0.7-0.5-1.2-1.2-1.2c-0.7,0-1.2,0.5-1.2,1.2v4.3
				C6.2,56.1,6.7,56.6,7.4,56.6z"/>
			<path class="st7" d="M45.2,41.9c-0.7,0-1.2,0.5-1.2,1.2v4.3c0,0.7,0.5,1.2,1.2,1.2c0.7,0,1.2-0.5,1.2-1.2v-4.3
				C46.4,42.5,45.8,41.9,45.2,41.9z"/>
			<path class="st7" d="M45.2,33.3c-0.7,0-1.2,0.5-1.2,1.2v4.3c0,0.7,0.5,1.2,1.2,1.2c0.7,0,1.2-0.5,1.2-1.2v-4.3
				C46.4,33.8,45.8,33.3,45.2,33.3z"/>
			<path class="st7" d="M45.2,50.5c-0.7,0-1.2,0.5-1.2,1.2v4.3c0,0.7,0.5,1.2,1.2,1.2c0.7,0,1.2-0.5,1.2-1.2v-4.3
				C46.4,51.1,45.8,50.5,45.2,50.5z"/>
			<path class="st7" d="M44,27.7v2.5c0,0.7,0.5,1.2,1.2,1.2c0.7,0,1.2-0.5,1.2-1.2v-2.5c0-0.8-0.2-1.6-0.5-2.3
				c-0.3-0.6-1-0.9-1.6-0.6c-0.6,0.3-0.9,1-0.6,1.6C43.9,26.8,44,27.3,44,27.7z"/>
			<path class="st7" d="M45.2,59.2c-0.7,0-1.2,0.5-1.2,1.2v4.3c0,0.7,0.5,1.2,1.2,1.2c0.7,0,1.2-0.5,1.2-1.2v-4.3
				C46.4,59.7,45.8,59.2,45.2,59.2z"/>
			<path class="st7" d="M37.3,24.6h3.6c0.2,0,0.3,0,0.5,0c0.1,0,0.1,0,0.2,0c0.6,0,1.1-0.4,1.2-1c0.1-0.7-0.3-1.3-1-1.4
				c-0.3,0-0.6-0.1-0.9-0.1h-3.6c-0.7,0-1.2,0.5-1.2,1.2C36.1,24,36.6,24.6,37.3,24.6z"/>
			<path class="st7" d="M28.8,24.6H33c0.7,0,1.2-0.5,1.2-1.2c0-0.7-0.5-1.2-1.2-1.2h-4.3c-0.7,0-1.2,0.5-1.2,1.2
				C27.6,24,28.1,24.6,28.8,24.6z"/>
			<path class="st7" d="M36.6,76.4h4.3c0.7,0,1.2-0.5,1.2-1.2c0-0.7-0.5-1.2-1.2-1.2h-4.3c-0.7,0-1.2,0.5-1.2,1.2
				C35.4,75.8,35.9,76.4,36.6,76.4z"/>
			<path class="st7" d="M43.8,74.2c0.2,0.1,0.4,0.2,0.7,0.2c0.4,0,0.8-0.2,1-0.6c0.6-0.9,0.9-2,0.9-3V69c0-0.7-0.5-1.2-1.2-1.2
				c-0.7,0-1.2,0.5-1.2,1.2v1.8c0,0.6-0.2,1.2-0.5,1.7C43.1,73.1,43.2,73.8,43.8,74.2z"/>
			<path class="st7" d="M52,44.3c0.1,0.1,0.2,0.2,0.2,0.2c1,1,2.3,1.6,3.8,1.6h3.3c0.7,0,1.2-0.5,1.2-1.2c0-0.7-0.5-1.2-1.2-1.2
				h-3.3c-0.4,0-0.9-0.1-1.3-0.3l8.5-7.6l8.5,7.6c-0.4,0.2-0.8,0.3-1.2,0.3h-4.1c-0.7,0-1.2,0.5-1.2,1.2c0,0.7,0.5,1.2,1.2,1.2h4.1
				c1.6,0,3-0.7,4-1.7c0,0,0.1-0.1,0.1-0.1c0,0,0,0,0,0c0.9-1,1.5-2.3,1.5-3.8V27.7c0-3.1-2.5-5.6-5.5-5.6H56.1c-1.6,0-3,0.7-4,1.7
				c0,0-0.1,0.1-0.1,0.1c0,0,0,0,0,0c-0.9,1-1.4,2.3-1.4,3.7v12.8c0,1.4,0.5,2.6,1.3,3.6C51.9,44.2,52,44.3,52,44.3z M73.8,27.7
				v12.8c0,0.4-0.1,0.8-0.2,1.1l-8.4-7.5l8.4-7.5C73.7,27,73.8,27.3,73.8,27.7z M56.1,24.6h14.6c0.4,0,0.9,0.1,1.3,0.3l-8.6,7.7
				l-8.6-7.7C55.2,24.7,55.7,24.6,56.1,24.6z M53,27.7c0-0.4,0.1-0.7,0.2-1.1l8.4,7.5l-8.4,7.5c-0.1-0.3-0.2-0.7-0.2-1.1V27.7z"/>
			<path class="st7" d="M52.1,74.6C52.1,74.6,52.1,74.6,52.1,74.6c1.1,1.1,2.5,1.8,4.1,1.8h14.6c1.6,0,3-0.7,4-1.7
				c0,0,0.1-0.1,0.1-0.1c0,0,0,0,0,0c0.9-1,1.4-2.3,1.4-3.7V58c0-1.4-0.5-2.8-1.4-3.7c0,0,0,0,0,0c0,0-0.1-0.1-0.1-0.1
				c-1-1.1-2.4-1.7-4-1.7H56.1c-1.6,0-3,0.7-4,1.7c0,0-0.1,0.1-0.1,0.1c0,0,0,0,0,0c-0.9,1-1.4,2.3-1.4,3.7v12.8
				C50.6,72.2,51.2,73.6,52.1,74.6C52,74.6,52.1,74.6,52.1,74.6z M70.7,73.9H56.1c-0.4,0-0.9-0.1-1.3-0.3l8.5-7.7l8.5,7.7
				C71.6,73.9,71.2,73.9,70.7,73.9z M73.8,58v12.8c0,0.4-0.1,0.8-0.2,1.1l-8.4-7.5l8.4-7.5C73.7,57.2,73.8,57.6,73.8,58z M56.1,54.9
				h14.6c0.4,0,0.9,0.1,1.3,0.3l-8.5,7.7l-8.5-7.7C55.3,54.9,55.7,54.9,56.1,54.9z M53,58c0-0.4,0.1-0.8,0.2-1.1l8.4,7.5l-8.4,7.5
				c-0.1-0.3-0.2-0.7-0.2-1.1V58z"/>
		</g>
	</g>
</g>
<g id="Layer_3" class="st47">
</g>
</svg>
