<?xml version="1.0" encoding="utf-8"?>
<!-- Generator: Adobe Illustrator 22.0.0, SVG Export Plug-In . SVG Version: 6.00 Build 0)  -->
<svg version="1.1" xmlns="http://www.w3.org/2000/svg" xmlns:xlink="http://www.w3.org/1999/xlink" x="0px" y="0px"
	 viewBox="0 0 83.9 84.9" style="enable-background:new 0 0 83.9 84.9;" xml:space="preserve">
<style type="text/css">
	.st0{fill:#FFFFFF;}
	.st1{fill:#F5F7F9;}
	.st2{fill:#BBD792;}
	.st3{opacity:0.8;}
	.st4{fill:#262626;}
	.st5{fill:#383838;}
	.st6{opacity:0.85;}
	.st7{fill:#3BACE2;}
	.st8{fill:none;stroke:#3BACE2;stroke-miterlimit:10;}
	.st9{enable-background:new    ;}
	.st10{fill:#0075FB;}
	.st11{fill:#8DBC4A;}
	.st12{opacity:0.75;fill:#FFFFFF;stroke:#FFFFFF;stroke-miterlimit:10;}
	.st13{opacity:0.8;fill:#262626;}
	.st14{fill:#DB9FF4;}
	.st15{fill:#06B295;}
	.st16{opacity:0.7;fill:#FFFFFF;}
	.st17{fill:none;stroke:#3BACE2;stroke-width:2;stroke-miterlimit:10;}
	.st18{fill:#FFFFFF;stroke:#3BACE2;stroke-miterlimit:10;}
	.st19{fill:none;stroke:#3BACE2;stroke-width:1.7755;stroke-miterlimit:10;}
	.st20{fill:#FFFFFF;stroke:#3BACE2;stroke-width:1.7755;stroke-miterlimit:10;}
	.st21{opacity:0.97;fill:#383838;}
	.st22{fill:none;stroke:#386BB2;stroke-linecap:round;stroke-linejoin:round;stroke-miterlimit:10;}
	.st23{fill:#273270;}
	.st24{fill:#7C797C;}
	.st25{fill:#4B51BC;}
	.st26{fill:#FFFFFF;stroke:#3BACE2;stroke-width:1.7959;stroke-miterlimit:10;}
	.st27{clip-path:url(#SVGID_2_);}
	.st28{clip-path:url(#SVGID_4_);}
	.st29{fill:#FFFFFF;stroke:#3BACE2;stroke-width:2;stroke-miterlimit:10;}
	.st30{clip-path:url(#SVGID_6_);}
	.st31{opacity:0.6;fill:#2B2B2A;}
	.st32{opacity:0.6;}
	.st33{opacity:0.99;fill:#FFFFFF;stroke:#FFFFFF;stroke-miterlimit:10;}
	.st34{opacity:0.4;}
	.st35{fill:url(#SVGID_7_);}
	.st36{fill:url(#SVGID_8_);}
	.st37{fill:url(#SVGID_9_);}
	.st38{fill:url(#SVGID_10_);}
	.st39{clip-path:url(#SVGID_12_);}
	.st40{clip-path:url(#SVGID_16_);}
	.st41{clip-path:url(#SVGID_20_);}
	.st42{clip-path:url(#SVGID_24_);}
	.st43{clip-path:url(#SVGID_28_);}
	.st44{clip-path:url(#SVGID_32_);}
	.st45{clip-path:url(#SVGID_36_);}
	.st46{clip-path:url(#SVGID_40_);}
	.st47{display:none;}
</style>
<g id="Layer_1">
	<g id="Layer_2">
	</g>
	<g>
		<g>
			<g>
				<g>
					<path class="st7" d="M31.6,57.6c-0.4,0-0.7-0.1-1-0.4l-10.3-8.8c-0.4-0.3-0.6-0.8-0.6-1.2c0-0.5,0.2-0.9,0.6-1.2l10.3-8.8
						c0.7-0.6,1.7-0.5,2.3,0.2c0.6,0.7,0.5,1.7-0.2,2.3l-8.9,7.6l8.9,7.6c0.7,0.6,0.8,1.6,0.2,2.3C32.5,57.4,32,57.6,31.6,57.6z"/>
					<path class="st7" d="M52,57.6c-0.5,0-0.9-0.2-1.2-0.6c-0.6-0.7-0.5-1.7,0.2-2.3l8.9-7.6l-8.9-7.6c-0.7-0.6-0.8-1.6-0.2-2.3
						c0.6-0.7,1.6-0.8,2.3-0.2l10.3,8.8c0.4,0.3,0.6,0.8,0.6,1.2c0,0.5-0.2,0.9-0.6,1.2L53,57.2C52.7,57.5,52.3,57.6,52,57.6z"/>
					<path class="st7" d="M38.1,64.2c-0.1,0-0.2,0-0.3,0c-0.9-0.2-1.4-1-1.2-1.9L43,31.6c0.2-0.9,1-1.4,1.9-1.2
						c0.9,0.2,1.4,1,1.2,1.9l-6.4,30.7C39.5,63.7,38.9,64.2,38.1,64.2z"/>
				</g>
			</g>
			<path class="st7" d="M7.1,9.3c0,1.5,1.2,2.8,2.7,2.8c1.5,0,2.7-1.2,2.7-2.8c0-1.5-1.2-2.8-2.7-2.8C8.3,6.5,7.1,7.7,7.1,9.3z
				 M10.7,9.3c0,0.5-0.4,0.9-0.9,0.9C9.4,10.1,9,9.7,9,9.3c0-0.5,0.4-0.9,0.9-0.9C10.3,8.4,10.7,8.8,10.7,9.3z"/>
			<path class="st7" d="M14.1,9.3c0,1.5,1.2,2.8,2.7,2.8s2.7-1.2,2.7-2.8c0-1.5-1.2-2.8-2.7-2.8C15.3,6.5,14.1,7.7,14.1,9.3z
				 M17.7,9.3c0,0.5-0.4,0.9-0.9,0.9c-0.5,0-0.9-0.4-0.9-0.9c0-0.5,0.4-0.9,0.9-0.9C17.3,8.4,17.7,8.8,17.7,9.3z"/>
			<path class="st7" d="M21.1,9.3c0,1.5,1.2,2.8,2.7,2.8s2.7-1.2,2.7-2.8c0-1.5-1.2-2.8-2.7-2.8S21.1,7.7,21.1,9.3z M24.7,9.3
				c0,0.5-0.4,0.9-0.9,0.9c-0.5,0-0.9-0.4-0.9-0.9c0-0.5,0.4-0.9,0.9-0.9C24.3,8.4,24.7,8.8,24.7,9.3z"/>
			<path class="st7" d="M77.8,1H39c-0.7,0-1.2,0.5-1.2,1.2c0,0.7,0.5,1.2,1.2,1.2h38.8c1.6,0,2.9,1.3,2.9,2.9v8.8H2.9V6.4
				c0-1.6,1.3-2.9,2.9-2.9h25.6c0.7,0,1.2-0.5,1.2-1.2c0-0.7-0.5-1.2-1.2-1.2H5.8C2.9,1,0.5,3.4,0.5,6.4v72.5c0,3,2.4,5.4,5.3,5.4
				h72c2.9,0,5.3-2.4,5.3-5.4V6.4C83.2,3.4,80.8,1,77.8,1z M80.8,78.8c0,1.6-1.3,2.9-2.9,2.9h-72c-1.6,0-2.9-1.3-2.9-2.9V17.6h77.8
				V78.8z"/>
		</g>
	</g>
</g>
<g id="Layer_3" class="st47">
</g>
</svg>
