<?xml version="1.0" encoding="utf-8"?>
<!-- Generator: Adobe Illustrator 22.0.0, SVG Export Plug-In . SVG Version: 6.00 Build 0)  -->
<svg version="1.1" xmlns="http://www.w3.org/2000/svg" xmlns:xlink="http://www.w3.org/1999/xlink" x="0px" y="0px"
	 viewBox="0 0 89.3 89.8" style="enable-background:new 0 0 89.3 89.8;" xml:space="preserve">
<style type="text/css">
	.st0{fill:#FFFFFF;}
	.st1{fill:#F5F7F9;}
	.st2{fill:#BBD792;}
	.st3{opacity:0.8;}
	.st4{fill:#262626;}
	.st5{fill:#383838;}
	.st6{opacity:0.85;}
	.st7{fill:#3BACE2;}
	.st8{fill:none;stroke:#3BACE2;stroke-miterlimit:10;}
	.st9{enable-background:new    ;}
	.st10{fill:#0075FB;}
	.st11{fill:#8DBC4A;}
	.st12{opacity:0.75;fill:#FFFFFF;stroke:#FFFFFF;stroke-miterlimit:10;}
	.st13{opacity:0.8;fill:#262626;}
	.st14{fill:#DB9FF4;}
	.st15{fill:#06B295;}
	.st16{opacity:0.7;fill:#FFFFFF;}
	.st17{fill:none;stroke:#3BACE2;stroke-width:2;stroke-miterlimit:10;}
	.st18{fill:#FFFFFF;stroke:#3BACE2;stroke-miterlimit:10;}
	.st19{fill:none;stroke:#3BACE2;stroke-width:1.7755;stroke-miterlimit:10;}
	.st20{fill:#FFFFFF;stroke:#3BACE2;stroke-width:1.7755;stroke-miterlimit:10;}
	.st21{opacity:0.97;fill:#383838;}
	.st22{fill:none;stroke:#386BB2;stroke-linecap:round;stroke-linejoin:round;stroke-miterlimit:10;}
	.st23{fill:#273270;}
	.st24{fill:#7C797C;}
	.st25{fill:#4B51BC;}
	.st26{fill:#FFFFFF;stroke:#3BACE2;stroke-width:1.7959;stroke-miterlimit:10;}
	.st27{clip-path:url(#SVGID_2_);}
	.st28{clip-path:url(#SVGID_4_);}
	.st29{fill:#FFFFFF;stroke:#3BACE2;stroke-width:2;stroke-miterlimit:10;}
	.st30{clip-path:url(#SVGID_6_);}
	.st31{opacity:0.6;fill:#2B2B2A;}
	.st32{opacity:0.6;}
	.st33{opacity:0.99;fill:#FFFFFF;stroke:#FFFFFF;stroke-miterlimit:10;}
	.st34{opacity:0.4;}
	.st35{fill:url(#SVGID_7_);}
	.st36{fill:url(#SVGID_8_);}
	.st37{fill:url(#SVGID_9_);}
	.st38{fill:url(#SVGID_10_);}
	.st39{clip-path:url(#SVGID_12_);}
	.st40{clip-path:url(#SVGID_16_);}
	.st41{clip-path:url(#SVGID_20_);}
	.st42{clip-path:url(#SVGID_24_);}
	.st43{clip-path:url(#SVGID_28_);}
	.st44{clip-path:url(#SVGID_32_);}
	.st45{clip-path:url(#SVGID_36_);}
	.st46{clip-path:url(#SVGID_40_);}
	.st47{display:none;}
</style>
<g id="Layer_1">
	<g id="Layer_2">
	</g>
	<g>
		<path class="st7" d="M10.5,57.3h28v3.4h-28V57.3z"/>
		<path class="st7" d="M10.5,64h28v3.4h-28V64z"/>
		<path class="st7" d="M10.5,70.8h28v3.4h-28V70.8z"/>
		<path class="st7" d="M43.2,24.3h32.8v3.4H43.2V24.3z"/>
		<path class="st7" d="M43.2,31h32.8v3.4H43.2V31z"/>
		<path class="st7" d="M43.2,37.8h32.8v3.4H43.2V37.8z"/>
		<path class="st7" d="M43.2,44.5h32.8v3.4H43.2V44.5z"/>
		<path class="st7" d="M2.4,17.5c-0.7,0-1.2-0.5-1.2-1.2V6.3C1.2,3.4,3.6,1,6.6,1h25.5c0.7,0,1.2,0.5,1.2,1.2c0,0.7-0.5,1.2-1.2,1.2
			H6.6C5,3.4,3.7,4.7,3.7,6.3v9.9C3.7,16.9,3.1,17.5,2.4,17.5z"/>
		<path class="st7" d="M6.7,9.2c0,1.4,1.2,2.6,2.6,2.6c1.4,0,2.6-1.2,2.6-2.6c0-1.4-1.2-2.6-2.6-2.6C7.9,6.6,6.7,7.8,6.7,9.2z
			 M10.2,9.2c0,0.5-0.4,0.8-0.8,0.8c-0.5,0-0.8-0.4-0.8-0.8c0-0.5,0.4-0.8,0.8-0.8C9.8,8.4,10.2,8.8,10.2,9.2z"/>
		<path class="st7" d="M13.4,9.2c0,1.4,1.2,2.6,2.6,2.6s2.6-1.2,2.6-2.6c0-1.4-1.2-2.6-2.6-2.6C14.5,6.6,13.4,7.8,13.4,9.2z
			 M16.8,9.2c0,0.5-0.4,0.8-0.8,0.8c-0.5,0-0.8-0.4-0.8-0.8c0-0.5,0.4-0.8,0.8-0.8C16.4,8.4,16.8,8.8,16.8,9.2z"/>
		<path class="st7" d="M20,9.2c0,1.4,1.2,2.6,2.6,2.6c1.4,0,2.6-1.2,2.6-2.6c0-1.4-1.2-2.6-2.6-2.6C21.2,6.6,20,7.8,20,9.2z
			 M23.5,9.2c0,0.5-0.4,0.8-0.8,0.8c-0.5,0-0.8-0.4-0.8-0.8c0-0.5,0.4-0.8,0.8-0.8C23.1,8.4,23.5,8.8,23.5,9.2z"/>
		<path class="st7" d="M80.4,1H39.7c-0.7,0-1.2,0.5-1.2,1.2c0,0.7,0.5,1.2,1.2,1.2h40.7c0.5,0,1,0.4,1,1v10.7H3.7V4.4
			c0-0.5,0.4-1,1-1h27.4c0.7,0,1.2-0.5,1.2-1.2c0-0.7-0.5-1.2-1.2-1.2H4.6C2.8,1,1.2,2.5,1.2,4.4v75.9c0,1.9,1.5,3.4,3.4,3.4l67,0.3
			c0.8,0,1.4-0.7,1.3-1.5c0,0,0,0,0,0c-0.1-0.7-0.6-1.2-1.3-1.2h-67c-0.5,0-1-0.4-1-1V17.5h77.7c0,0,0,45.1,0,53.1
			c0,0.7,0.5,1.3,1.2,1.3l0,0c0.8,0,1.4-0.6,1.4-1.3L83.8,4.4C83.8,2.5,82.2,1,80.4,1z"/>
		<path class="st7" d="M12.3,46.1c0.1,0.1,0.2,0.2,0.2,0.2c1,1,2.4,1.6,3.9,1.6h3.3c0.7,0,1.2-0.5,1.2-1.2c0-0.7-0.5-1.2-1.2-1.2
			h-3.3c-0.4,0-0.9-0.1-1.3-0.3l8.6-7.6l8.6,7.6c-0.4,0.2-0.8,0.3-1.2,0.3H27c-0.7,0-1.2,0.5-1.2,1.2c0,0.7,0.5,1.2,1.2,1.2h4.1
			c1.6,0,3-0.7,4-1.7c0,0,0.1-0.1,0.1-0.1c0,0,0,0,0,0c0.9-1,1.5-2.3,1.5-3.8V29.5c0-3.1-2.5-5.6-5.5-5.6H16.4c-1.6,0-3,0.7-4,1.7
			c0,0-0.1,0.1-0.1,0.1c0,0,0,0,0,0c-0.9,1-1.4,2.3-1.4,3.7v12.8c0,1.4,0.5,2.6,1.3,3.6C12.2,45.9,12.3,46,12.3,46.1z M34.2,29.5
			v12.8c0,0.4-0.1,0.8-0.2,1.1l-8.4-7.5l8.5-7.5C34.2,28.8,34.2,29.1,34.2,29.5z M16.4,26.4h14.7c0.5,0,0.9,0.1,1.3,0.3l-8.6,7.6
			l-8.6-7.6C15.5,26.5,16,26.4,16.4,26.4z M13.3,29.5c0-0.4,0.1-0.7,0.2-1.1l8.4,7.5l-8.4,7.5c-0.1-0.3-0.2-0.7-0.2-1.1V29.5z"/>
		<g>
			<g id="search_1_">
				<path class="st7" d="M78.6,75.8c-0.3-0.2-0.6-0.5-0.8-0.8L74.8,72h-1.5l-0.6-0.6c2.8-3.1,3.9-7.9,2.1-12.4
					c-1.7-4.2-5.7-7.2-10.2-7.5c-7.6-0.7-13.9,5.6-13.2,13.2c0.4,4.5,3.4,8.5,7.5,10.2c4.6,1.8,9.3,0.7,12.4-2.1l0.6,0.6v1.5
					l4.5,4.5c0.3,0.3,0.6,0.6,0.9,0.9l7.3,7.3c0.8,0.8,2,0.8,2.8,0l0,0c0.8-0.8,0.8-2,0-2.8L78.6,75.8z M64.5,72
					c-5.4,0.5-9.8-3.9-9.3-9.3c0.4-3.9,3.6-7.1,7.5-7.5c5.4-0.5,9.8,3.9,9.3,9.3C71.6,68.4,68.4,71.6,64.5,72z"/>
			</g>
		</g>
	</g>
</g>
<g id="Layer_3" class="st47">
</g>
</svg>
