<?xml version="1.0" encoding="utf-8"?>
<!-- Generator: Adobe Illustrator 22.0.0, SVG Export Plug-In . SVG Version: 6.00 Build 0)  -->
<svg version="1.1" xmlns="http://www.w3.org/2000/svg" xmlns:xlink="http://www.w3.org/1999/xlink" x="0px" y="0px"
	 viewBox="0 0 24.8 31.1" style="enable-background:new 0 0 24.8 31.1;" xml:space="preserve">
<style type="text/css">
	.st0{fill:#FFFFFF;}
	.st1{fill:#F5F7F9;}
	.st2{fill:#BBD792;}
	.st3{opacity:0.8;}
	.st4{fill:#262626;}
	.st5{fill:#383838;}
	.st6{opacity:0.85;}
	.st7{fill:#3BACE2;}
	.st8{fill:none;stroke:#3BACE2;stroke-miterlimit:10;}
	.st9{enable-background:new    ;}
	.st10{fill:#0075FB;}
	.st11{fill:#8DBC4A;}
	.st12{opacity:0.75;fill:#FFFFFF;stroke:#FFFFFF;stroke-miterlimit:10;}
	.st13{opacity:0.8;fill:#262626;}
	.st14{fill:#DB9FF4;}
	.st15{fill:#06B295;}
	.st16{opacity:0.7;fill:#FFFFFF;}
	.st17{fill:none;stroke:#3BACE2;stroke-width:2;stroke-miterlimit:10;}
	.st18{fill:#FFFFFF;stroke:#3BACE2;stroke-miterlimit:10;}
	.st19{fill:none;stroke:#3BACE2;stroke-width:1.7755;stroke-miterlimit:10;}
	.st20{fill:#FFFFFF;stroke:#3BACE2;stroke-width:1.7755;stroke-miterlimit:10;}
	.st21{opacity:0.97;fill:#383838;}
	.st22{fill:none;stroke:#386BB2;stroke-linecap:round;stroke-linejoin:round;stroke-miterlimit:10;}
	.st23{fill:#273270;}
	.st24{fill:#7C797C;}
	.st25{fill:#4B51BC;}
	.st26{fill:#FFFFFF;stroke:#3BACE2;stroke-width:1.7959;stroke-miterlimit:10;}
	.st27{clip-path:url(#SVGID_2_);}
	.st28{clip-path:url(#SVGID_4_);}
	.st29{fill:#FFFFFF;stroke:#3BACE2;stroke-width:2;stroke-miterlimit:10;}
	.st30{clip-path:url(#SVGID_6_);}
	.st31{opacity:0.6;fill:#2B2B2A;}
	.st32{opacity:0.6;}
	.st33{opacity:0.99;fill:#FFFFFF;stroke:#FFFFFF;stroke-miterlimit:10;}
	.st34{opacity:0.4;}
	.st35{fill:url(#SVGID_7_);}
	.st36{fill:url(#SVGID_8_);}
	.st37{fill:url(#SVGID_9_);}
	.st38{fill:url(#SVGID_10_);}
	.st39{clip-path:url(#SVGID_12_);}
	.st40{clip-path:url(#SVGID_16_);}
	.st41{clip-path:url(#SVGID_20_);}
	.st42{clip-path:url(#SVGID_24_);}
	.st43{clip-path:url(#SVGID_28_);}
	.st44{clip-path:url(#SVGID_32_);}
	.st45{clip-path:url(#SVGID_36_);}
	.st46{clip-path:url(#SVGID_40_);}
	.st47{display:none;}
</style>
<g id="Layer_1">
	<g id="Layer_2">
	</g>
	<g>
		<g>
			<g>
				<g>
					<path class="st7" d="M24,9.9c0-2.2-1.9-4-4.2-4h-1.6C17.9,3.1,15.4,1,12.4,1S6.9,3.1,6.6,5.9H5c-2.3,0-4.2,1.8-4.2,4
						s1.9,4,4.2,4h5.8v-1H5c-1.7,0-3.2-1.3-3.2-3s1.4-3,3.2-3h2.6V6.4C7.7,4,9.8,2,12.4,2s4.7,2,4.7,4.5v0.5h2.6
						c1.7,0,3.2,1.3,3.2,3s-1.4,3-3.2,3H14v1h5.8C22.1,13.9,24,12.1,24,9.9z"/>
					<path class="st7" d="M21.9,29.2v-8.4c0-0.8-0.7-1.5-1.6-1.5h-1.1v-1.1c0.7-0.2,1.1-0.9,1-1.6c-0.1-0.7-0.7-1.2-1.4-1.3
						c-0.7-0.1-1.4,0.3-1.7,1h-4.3v-6.2l1.2,1.1l0.7-0.7l-2.5-2.3l-2.5,2.3l0.7,0.7l1.2-1.1v6.2H7.6c-0.2-0.7-0.9-1.1-1.7-1
						c-0.7,0.1-1.3,0.6-1.4,1.3c-0.1,0.7,0.4,1.3,1,1.6v1.6H2.4c-0.9,0-1.6,0.7-1.6,1.5v5.9c0,0.8,0.7,1.5,1.6,1.5h3.2v1H4v1h4.2v-1
						H6.6v-1h3.2c0.9,0,1.6-0.7,1.6-1.5v-5.9c0-0.8-0.7-1.5-1.6-1.5H6.6v-1.6c0.4-0.1,0.8-0.5,1-0.9h9.7c0.2,0.4,0.5,0.7,1,0.9v1.1
						H15c-0.9,0-1.6,0.7-1.6,1.5v8.4c0,0.8,0.7,1.5,1.6,1.5h5.3C21.2,30.7,21.9,30,21.9,29.2z M10.3,27.2c0,0.3-0.2,0.5-0.5,0.5H2.4
						c-0.3,0-0.5-0.2-0.5-0.5v-1h8.4V27.2z M9.8,20.8c0.3,0,0.5,0.2,0.5,0.5v4H1.9v-4c0-0.3,0.2-0.5,0.5-0.5H9.8z M6.1,17.3
						c-0.3,0-0.5-0.2-0.5-0.5s0.2-0.5,0.5-0.5c0.3,0,0.5,0.2,0.5,0.5C6.6,17.1,6.4,17.3,6.1,17.3z M18.7,16.3c0.3,0,0.5,0.2,0.5,0.5
						s-0.2,0.5-0.5,0.5c-0.3,0-0.5-0.2-0.5-0.5C18.2,16.6,18.4,16.3,18.7,16.3z M14.5,20.8c0-0.3,0.2-0.5,0.5-0.5h5.3
						c0.3,0,0.5,0.2,0.5,0.5v6.4h-6.3V20.8z M14.5,29.2v-1h6.3v1c0,0.3-0.2,0.5-0.5,0.5H15C14.7,29.7,14.5,29.5,14.5,29.2z"/>
				</g>
			</g>
		</g>
	</g>
</g>
<g id="Layer_3" class="st47">
</g>
</svg>
