<?xml version="1.0" encoding="utf-8"?>
<!-- Generator: Adobe Illustrator 22.0.0, SVG Export Plug-In . SVG Version: 6.00 Build 0)  -->
<svg version="1.1" xmlns="http://www.w3.org/2000/svg" xmlns:xlink="http://www.w3.org/1999/xlink" x="0px" y="0px"
	 viewBox="0 0 24.8 31.1" style="enable-background:new 0 0 24.8 31.1;" xml:space="preserve">
<style type="text/css">
	.st0{fill:#FFFFFF;}
	.st1{fill:#F5F7F9;}
	.st2{fill:#BBD792;}
	.st3{opacity:0.8;}
	.st4{fill:#262626;}
	.st5{fill:#383838;}
	.st6{opacity:0.85;}
	.st7{fill:#3BACE2;}
	.st8{fill:none;stroke:#3BACE2;stroke-miterlimit:10;}
	.st9{enable-background:new    ;}
	.st10{fill:#0075FB;}
	.st11{fill:#8DBC4A;}
	.st12{opacity:0.75;fill:#FFFFFF;stroke:#FFFFFF;stroke-miterlimit:10;}
	.st13{opacity:0.8;fill:#262626;}
	.st14{fill:#DB9FF4;}
	.st15{fill:#06B295;}
	.st16{opacity:0.7;fill:#FFFFFF;}
	.st17{fill:none;stroke:#3BACE2;stroke-width:2;stroke-miterlimit:10;}
	.st18{fill:#FFFFFF;stroke:#3BACE2;stroke-miterlimit:10;}
	.st19{fill:none;stroke:#3BACE2;stroke-width:1.7755;stroke-miterlimit:10;}
	.st20{fill:#FFFFFF;stroke:#3BACE2;stroke-width:1.7755;stroke-miterlimit:10;}
	.st21{opacity:0.97;fill:#383838;}
	.st22{fill:none;stroke:#386BB2;stroke-linecap:round;stroke-linejoin:round;stroke-miterlimit:10;}
	.st23{fill:#273270;}
	.st24{fill:#7C797C;}
	.st25{fill:#4B51BC;}
	.st26{fill:#FFFFFF;stroke:#3BACE2;stroke-width:1.7959;stroke-miterlimit:10;}
	.st27{clip-path:url(#SVGID_2_);}
	.st28{clip-path:url(#SVGID_4_);}
	.st29{fill:#FFFFFF;stroke:#3BACE2;stroke-width:2;stroke-miterlimit:10;}
	.st30{clip-path:url(#SVGID_6_);}
	.st31{opacity:0.6;fill:#2B2B2A;}
	.st32{opacity:0.6;}
	.st33{opacity:0.99;fill:#FFFFFF;stroke:#FFFFFF;stroke-miterlimit:10;}
	.st34{opacity:0.4;}
	.st35{fill:url(#SVGID_7_);}
	.st36{fill:url(#SVGID_8_);}
	.st37{fill:url(#SVGID_9_);}
	.st38{fill:url(#SVGID_10_);}
	.st39{clip-path:url(#SVGID_12_);}
	.st40{clip-path:url(#SVGID_16_);}
	.st41{clip-path:url(#SVGID_20_);}
	.st42{clip-path:url(#SVGID_24_);}
	.st43{clip-path:url(#SVGID_28_);}
	.st44{clip-path:url(#SVGID_32_);}
	.st45{clip-path:url(#SVGID_36_);}
	.st46{clip-path:url(#SVGID_40_);}
	.st47{display:none;}
</style>
<g id="Layer_1">
	<g id="Layer_2">
	</g>
	<g>
		<g>
			<g id="surface1_16_">
				<g>
					<path class="st7" d="M19.8,12.1l-0.7,0.7l3.1,2.8c0.7,0.7,1.1,1.6,1.1,2.6v12.4h1V18.3c0-1.3-0.5-2.5-1.5-3.4L19.8,12.1z"/>
					<path class="st7" d="M15.8,0.3H2.6c-1.4,0-2.5,1.1-2.5,2.5v25.3c0,1.4,1.1,2.5,2.5,2.5h12.6v-0.9c0-2.3,0.7-4.5,1.9-6.4
						c0.1-0.2,0.1-0.5-0.1-0.6l-3.5-3.5c-0.3-0.3-0.5-0.8-0.5-1.2c0-0.5,0.2-0.9,0.6-1.2c0.7-0.5,1.7-0.5,2.3,0.2l5,5l0.7-0.7
						l-3.4-3.4V2.9C18.3,1.5,17.2,0.3,15.8,0.3z M17.3,16.8l-0.6-0.6c-1-1-2.5-1.1-3.6-0.2c-0.6,0.5-0.9,1.2-1,1.9
						c0,0.7,0.2,1.5,0.8,2l3.2,3.2c-1.2,2-1.9,4.2-1.9,6.5H2.6c-0.8,0-1.5-0.7-1.5-1.5v-1.5h12.6v-1H1.1V4.4h16.2V16.8z M17.3,3.4
						H1.1V2.9c0-0.8,0.7-1.5,1.5-1.5h13.1c0.8,0,1.5,0.7,1.5,1.5V3.4z"/>
					<path class="st7" d="M3.1,9.4h2c0.6,0,1-0.5,1-1v-2c0-0.6-0.5-1-1-1h-2c-0.6,0-1,0.5-1,1v2C2.1,9,2.6,9.4,3.1,9.4z M3.1,6.4h2
						v2h-2V6.4z"/>
					<path class="st7" d="M8.2,9.4h2c0.6,0,1-0.5,1-1v-2c0-0.6-0.5-1-1-1h-2c-0.6,0-1,0.5-1,1v2C7.2,9,7.6,9.4,8.2,9.4z M8.2,6.4h2
						v2h-2V6.4z"/>
					<path class="st7" d="M13.2,9.4h2c0.6,0,1-0.5,1-1v-2c0-0.6-0.5-1-1-1h-2c-0.6,0-1,0.5-1,1v2C12.2,9,12.7,9.4,13.2,9.4z
						 M13.2,6.4h2v2h-2V6.4z"/>
					<path class="st7" d="M3.1,14.5h2c0.6,0,1-0.5,1-1v-2c0-0.6-0.5-1-1-1h-2c-0.6,0-1,0.5-1,1v2C2.1,14,2.6,14.5,3.1,14.5z
						 M3.1,11.5h2v2h-2V11.5z"/>
					<path class="st7" d="M3.1,19.5h2c0.6,0,1-0.5,1-1v-2c0-0.6-0.5-1-1-1h-2c-0.6,0-1,0.5-1,1v2C2.1,19.1,2.6,19.5,3.1,19.5z
						 M3.1,16.5h2v2h-2V16.5z"/>
					<path class="st7" d="M8.2,14.5h2c0.6,0,1-0.5,1-1v-2c0-0.6-0.5-1-1-1h-2c-0.6,0-1,0.5-1,1v2C7.2,14,7.6,14.5,8.2,14.5z
						 M8.2,11.5h2v2h-2V11.5z"/>
					<path class="st7" d="M13.2,14.5h2c0.6,0,1-0.5,1-1v-2c0-0.6-0.5-1-1-1h-2c-0.6,0-1,0.5-1,1v2C12.2,14,12.7,14.5,13.2,14.5z
						 M13.2,11.5h2v2h-2V11.5z"/>
					<path class="st7" d="M8.2,19.5h2c0.6,0,1-0.5,1-1v-2c0-0.6-0.5-1-1-1h-2c-0.6,0-1,0.5-1,1v2C7.2,19.1,7.6,19.5,8.2,19.5z
						 M8.2,16.5h2v2h-2V16.5z"/>
					<path class="st7" d="M3.1,24.6h2c0.6,0,1-0.5,1-1v-2c0-0.6-0.5-1-1-1h-2c-0.6,0-1,0.5-1,1v2C2.1,24.1,2.6,24.6,3.1,24.6z
						 M3.1,21.6h2v2h-2V21.6z"/>
					<path class="st7" d="M8.2,24.6h2c0.6,0,1-0.5,1-1v-2c0-0.6-0.5-1-1-1h-2c-0.6,0-1,0.5-1,1v2C7.2,24.1,7.6,24.6,8.2,24.6z
						 M8.2,21.6h2v2h-2V21.6z"/>
					<path class="st7" d="M8.7,27.6h1v1h-1V27.6z"/>
				</g>
			</g>
		</g>
	</g>
</g>
<g id="Layer_3" class="st47">
</g>
</svg>
