<?xml version="1.0" encoding="utf-8"?>
<!-- Generator: Adobe Illustrator 22.0.0, SVG Export Plug-In . SVG Version: 6.00 Build 0)  -->
<svg version="1.1" xmlns="http://www.w3.org/2000/svg" xmlns:xlink="http://www.w3.org/1999/xlink" x="0px" y="0px"
	 viewBox="0 0 28.1 26.9" style="enable-background:new 0 0 28.1 26.9;" xml:space="preserve">
<style type="text/css">
	.st0{fill:#FFFFFF;}
	.st1{fill:#F5F7F9;}
	.st2{fill:#BBD792;}
	.st3{opacity:0.8;}
	.st4{fill:#262626;}
	.st5{fill:#383838;}
	.st6{opacity:0.85;}
	.st7{fill:#3BACE2;}
	.st8{fill:none;stroke:#3BACE2;stroke-miterlimit:10;}
	.st9{enable-background:new    ;}
	.st10{fill:#0075FB;}
	.st11{fill:#8DBC4A;}
	.st12{opacity:0.75;fill:#FFFFFF;stroke:#FFFFFF;stroke-miterlimit:10;}
	.st13{opacity:0.8;fill:#262626;}
	.st14{fill:#DB9FF4;}
	.st15{fill:#06B295;}
	.st16{opacity:0.7;fill:#FFFFFF;}
	.st17{fill:none;stroke:#3BACE2;stroke-width:2;stroke-miterlimit:10;}
	.st18{fill:#FFFFFF;stroke:#3BACE2;stroke-miterlimit:10;}
	.st19{fill:none;stroke:#3BACE2;stroke-width:1.7755;stroke-miterlimit:10;}
	.st20{fill:#FFFFFF;stroke:#3BACE2;stroke-width:1.7755;stroke-miterlimit:10;}
	.st21{opacity:0.97;fill:#383838;}
	.st22{fill:none;stroke:#386BB2;stroke-linecap:round;stroke-linejoin:round;stroke-miterlimit:10;}
	.st23{fill:#273270;}
	.st24{fill:#7C797C;}
	.st25{fill:#4B51BC;}
	.st26{fill:#FFFFFF;stroke:#3BACE2;stroke-width:1.7959;stroke-miterlimit:10;}
	.st27{clip-path:url(#SVGID_2_);}
	.st28{clip-path:url(#SVGID_4_);}
	.st29{fill:#FFFFFF;stroke:#3BACE2;stroke-width:2;stroke-miterlimit:10;}
	.st30{clip-path:url(#SVGID_6_);}
	.st31{opacity:0.6;fill:#2B2B2A;}
	.st32{opacity:0.6;}
	.st33{opacity:0.99;fill:#FFFFFF;stroke:#FFFFFF;stroke-miterlimit:10;}
	.st34{opacity:0.4;}
	.st35{fill:url(#SVGID_7_);}
	.st36{fill:url(#SVGID_8_);}
	.st37{fill:url(#SVGID_9_);}
	.st38{fill:url(#SVGID_10_);}
	.st39{clip-path:url(#SVGID_12_);}
	.st40{clip-path:url(#SVGID_16_);}
	.st41{clip-path:url(#SVGID_20_);}
	.st42{clip-path:url(#SVGID_24_);}
	.st43{clip-path:url(#SVGID_28_);}
	.st44{clip-path:url(#SVGID_32_);}
	.st45{clip-path:url(#SVGID_36_);}
	.st46{clip-path:url(#SVGID_40_);}
	.st47{display:none;}
</style>
<g id="Layer_1">
	<g id="Layer_2">
	</g>
	<g>
		<g>
			<g>
				<g>
					<path class="st7" d="M7.8,17.2C8,17,8.1,16.7,8,16.5c-0.1-0.3-0.5-0.3-0.7-0.2C7,16.4,6.9,16.7,7,17
						C7.2,17.2,7.5,17.3,7.8,17.2z"/>
					<path class="st7" d="M5.6,20.8l2.7,4.6c0.6,1,1.9,1.4,2.9,0.8c1-0.6,1.4-1.9,0.8-2.9l-1.6-2.8l1.4-0.8c0.3-0.1,0.3-0.5,0.2-0.7
						l-0.7-1.2c0.1,0,0.6-0.1,10.2-2c1.2-0.1,1.9-1.4,1.3-2.4l-1.8-3.1L22,8.7c0.1-0.2,0.1-0.4,0-0.6L21,6.3
						c-0.1-0.2-0.3-0.3-0.5-0.3l-2,0.1l-2-3.4C16.2,2.3,15.7,2,15.2,2c0,0,0,0,0,0c-0.5,0-1,0.3-1.3,0.7l-6.9,8.8l-4.5,2.6
						c-1.8,1-2.4,3.3-1.4,5.1C1.9,20.9,3.9,21.5,5.6,20.8z M11,23.9c0.3,0.5,0.1,1.2-0.4,1.5c-0.5,0.3-1.2,0.1-1.5-0.4l-2.7-4.6
						l1.8-1.1C11.4,24.6,11,23.8,11,23.9z M9.8,19.7l-0.5-0.9l0.9-0.5l0.5,0.9L9.8,19.7z M20.2,7.1L21,8.4l-0.7,1l-1.3-2.2L20.2,7.1
						z M14.7,3.3c0.1-0.2,0.4-0.3,0.5-0.3c0.1,0,0.3,0,0.5,0.3L21.8,14c0.2,0.3,0,0.8-0.4,0.8c-0.1,0-0.1,0-0.3,0L14.5,3.6
						C14.6,3.4,14.7,3.4,14.7,3.3z M13.8,4.5l6.1,10.6l-9.3,1.8L7.8,12L13.8,4.5z M1.9,18.7c-0.2-0.4-0.4-0.9-0.4-1.3
						c0-0.9,0.5-1.8,1.3-2.3L7,12.7l2.7,4.6l-4.1,2.4C4.3,20.4,2.6,20,1.9,18.7z"/>
					<path class="st7" d="M6.1,17.5c-0.1-0.3-0.5-0.3-0.7-0.2l-0.9,0.5c-0.3,0.1-0.6,0.1-0.7-0.2c-0.1-0.3-0.5-0.3-0.7-0.2
						s-0.3,0.5-0.2,0.7c0.4,0.8,1.4,1,2.2,0.6l0.9-0.5C6.2,18.1,6.3,17.8,6.1,17.5z"/>
					<path class="st7" d="M26.9,3.1l-3,1.6c-0.3,0.1-0.3,0.5-0.2,0.7c0.1,0.3,0.5,0.3,0.7,0.2l3-1.6c0.3-0.1,0.3-0.5,0.2-0.7
						C27.5,3.1,27.1,3,26.9,3.1z"/>
					<path class="st7" d="M26.6,8.6l-2.1-0.5c-0.3-0.1-0.6,0.1-0.7,0.4C23.8,8.7,24,9,24.2,9.1l2.1,0.5c0.3,0.1,0.6-0.1,0.7-0.4
						C27,9,26.9,8.7,26.6,8.6z"/>
					<path class="st7" d="M21.4,1.2l-0.6,2.1c-0.1,0.3,0.1,0.6,0.4,0.7c0.3,0.1,0.6-0.1,0.7-0.4l0.5-2.1c0.1-0.3-0.1-0.6-0.4-0.7
						C21.8,0.8,21.5,0.9,21.4,1.2z"/>
				</g>
			</g>
		</g>
	</g>
</g>
<g id="Layer_3" class="st47">
</g>
</svg>
