<?xml version="1.0" encoding="utf-8"?>
<!-- Generator: Adobe Illustrator 22.0.0, SVG Export Plug-In . SVG Version: 6.00 Build 0)  -->
<svg version="1.1" xmlns="http://www.w3.org/2000/svg" xmlns:xlink="http://www.w3.org/1999/xlink" x="0px" y="0px"
	 viewBox="0 0 25.2 31.1" style="enable-background:new 0 0 25.2 31.1;" xml:space="preserve">
<style type="text/css">
	.st0{fill:#FFFFFF;}
	.st1{fill:#F5F7F9;}
	.st2{fill:#BBD792;}
	.st3{opacity:0.8;}
	.st4{fill:#262626;}
	.st5{fill:#383838;}
	.st6{opacity:0.85;}
	.st7{fill:#3BACE2;}
	.st8{fill:none;stroke:#3BACE2;stroke-miterlimit:10;}
	.st9{enable-background:new    ;}
	.st10{fill:#0075FB;}
	.st11{fill:#8DBC4A;}
	.st12{opacity:0.75;fill:#FFFFFF;stroke:#FFFFFF;stroke-miterlimit:10;}
	.st13{opacity:0.8;fill:#262626;}
	.st14{fill:#DB9FF4;}
	.st15{fill:#06B295;}
	.st16{opacity:0.7;fill:#FFFFFF;}
	.st17{fill:none;stroke:#3BACE2;stroke-width:2;stroke-miterlimit:10;}
	.st18{fill:#FFFFFF;stroke:#3BACE2;stroke-miterlimit:10;}
	.st19{fill:none;stroke:#3BACE2;stroke-width:1.7755;stroke-miterlimit:10;}
	.st20{fill:#FFFFFF;stroke:#3BACE2;stroke-width:1.7755;stroke-miterlimit:10;}
	.st21{opacity:0.97;fill:#383838;}
	.st22{fill:none;stroke:#386BB2;stroke-linecap:round;stroke-linejoin:round;stroke-miterlimit:10;}
	.st23{fill:#273270;}
	.st24{fill:#7C797C;}
	.st25{fill:#4B51BC;}
	.st26{fill:#FFFFFF;stroke:#3BACE2;stroke-width:1.7959;stroke-miterlimit:10;}
	.st27{clip-path:url(#SVGID_2_);}
	.st28{clip-path:url(#SVGID_4_);}
	.st29{fill:#FFFFFF;stroke:#3BACE2;stroke-width:2;stroke-miterlimit:10;}
	.st30{clip-path:url(#SVGID_6_);}
	.st31{opacity:0.6;fill:#2B2B2A;}
	.st32{opacity:0.6;}
	.st33{opacity:0.99;fill:#FFFFFF;stroke:#FFFFFF;stroke-miterlimit:10;}
	.st34{opacity:0.4;}
	.st35{fill:url(#SVGID_7_);}
	.st36{fill:url(#SVGID_8_);}
	.st37{fill:url(#SVGID_9_);}
	.st38{fill:url(#SVGID_10_);}
	.st39{clip-path:url(#SVGID_12_);}
	.st40{clip-path:url(#SVGID_16_);}
	.st41{clip-path:url(#SVGID_20_);}
	.st42{clip-path:url(#SVGID_24_);}
	.st43{clip-path:url(#SVGID_28_);}
	.st44{clip-path:url(#SVGID_32_);}
	.st45{clip-path:url(#SVGID_36_);}
	.st46{clip-path:url(#SVGID_40_);}
	.st47{display:none;}
</style>
<g id="Layer_1">
	<g id="Layer_2">
	</g>
	<g>
		<g>
			<g>
				<g>
					<g>
						<g>
							<path class="st7" d="M21.9,0.8H3.1C1.7,0.8,0.6,2,0.6,3.3v13.3c0,1.4,1.1,2.5,2.5,2.5h6.8l-0.7,2.5H7.5v1h9.9v-1h-1.6
								l-0.7-2.5h6.8c1.4,0,2.5-1.1,2.5-2.5V3.3C24.3,2,23.2,0.8,21.9,0.8z M10.2,21.6l0.7-2.5h3.2l0.7,2.5H10.2z M23.3,16.6
								c0,0.8-0.7,1.5-1.5,1.5H3.1c-0.8,0-1.5-0.7-1.5-1.5v-1h21.7V16.6z M23.3,14.7H1.6V3.3c0-0.8,0.7-1.5,1.5-1.5h18.8
								c0.8,0,1.5,0.7,1.5,1.5V14.7z"/>
						</g>
					</g>
					<g>
						<g>
							<path class="st7" d="M16.4,23.6H2.6c-0.3,0-0.5,0.2-0.5,0.5V30c0,0.3,0.2,0.5,0.5,0.5h13.8c0.3,0,0.5-0.2,0.5-0.5V24
								C16.9,23.8,16.7,23.6,16.4,23.6z M15.9,29.5H3.1v-4.9h12.8V29.5z"/>
						</g>
					</g>
					<g>
						<g>
							<rect x="4.1" y="27.5" class="st7" width="1" height="1"/>
						</g>
					</g>
					<g>
						<g>
							<rect x="4.1" y="25.5" class="st7" width="1" height="1"/>
						</g>
					</g>
					<g>
						<g>
							<rect x="6.1" y="25.5" class="st7" width="1" height="1"/>
						</g>
					</g>
					<g>
						<g>
							<rect x="8" y="25.5" class="st7" width="1" height="1"/>
						</g>
					</g>
					<g>
						<g>
							<rect x="12" y="25.5" class="st7" width="1" height="1"/>
						</g>
					</g>
					<g>
						<g>
							<rect x="10" y="25.5" class="st7" width="1" height="1"/>
						</g>
					</g>
					<g>
						<g>
							<rect x="14" y="27.5" class="st7" width="1" height="1"/>
						</g>
					</g>
					<g>
						<g>
							<rect x="14" y="25.5" class="st7" width="1" height="1"/>
						</g>
					</g>
					<g>
						<g>
							<rect x="6.1" y="27.5" class="st7" width="6.9" height="1"/>
						</g>
					</g>
					<g>
						<g>
							<path class="st7" d="M20.4,23.6c-1.4,0-2.5,1.1-2.5,2.5v2c0,1.4,1.1,2.5,2.5,2.5s2.5-1.1,2.5-2.5v-2
								C22.9,24.7,21.7,23.6,20.4,23.6z M21.9,28c0,0.8-0.7,1.5-1.5,1.5s-1.5-0.7-1.5-1.5v-2c0-0.8,0.7-1.5,1.5-1.5s1.5,0.7,1.5,1.5
								V28z"/>
						</g>
					</g>
					<g>
						<g>
							<rect x="19.9" y="25.5" class="st7" width="1" height="1"/>
						</g>
					</g>
					<g>
						<g>
							
								<rect x="8.9" y="8.3" transform="matrix(0.2751 -0.9614 0.9614 0.2751 0.6335 18.3452)" class="st7" width="7.2" height="1"/>
						</g>
					</g>
					<g>
						<g>
							<path class="st7" d="M9.8,6.7L9.2,5.9l-3,2.5C6,8.5,6,8.9,6.2,9.1c0,0,0,0,0.1,0.1l3,2.5l0.6-0.8L7.3,8.7L9.8,6.7z"/>
						</g>
					</g>
					<g>
						<g>
							<path class="st7" d="M18.8,8.4C18.8,8.4,18.7,8.4,18.8,8.4l-3-2.5l-0.6,0.8l2.5,2.1l-2.5,2.1l0.6,0.8l3-2.5
								C18.9,8.9,19,8.6,18.8,8.4z"/>
						</g>
					</g>
				</g>
			</g>
		</g>
	</g>
</g>
<g id="Layer_3" class="st47">
</g>
</svg>
