<?xml version="1.0" encoding="utf-8"?>
<!-- Generator: Adobe Illustrator 22.0.0, SVG Export Plug-In . SVG Version: 6.00 Build 0)  -->
<svg version="1.1" id="Layer_1" xmlns="http://www.w3.org/2000/svg" xmlns:xlink="http://www.w3.org/1999/xlink" x="0px" y="0px"
	 viewBox="0 0 26.5 51.8" style="enable-background:new 0 0 26.5 51.8;" xml:space="preserve">
<style type="text/css">
	.st0{fill:#FFFFFF;}
	.st1{fill:url(#SVGID_1_);}
	.st2{fill:url(#SVGID_2_);}
	.st3{fill:url(#SVGID_3_);}
	.st4{fill:url(#SVGID_4_);}
	.st5{fill:url(#SVGID_5_);}
	.st6{fill:url(#SVGID_6_);}
	.st7{fill:#3DACE2;}
	.st8{fill:none;stroke:#3DACE2;stroke-miterlimit:10;}
	.st9{fill:none;stroke:#3DACE2;stroke-width:0.9822;stroke-miterlimit:10;}
	.st10{fill:none;stroke:#3DACE2;stroke-width:1.0252;stroke-miterlimit:10;}
	.st11{fill:none;stroke:#3DACE2;stroke-width:0.9948;stroke-miterlimit:10;}
	.st12{enable-background:new    ;}
	.st13{fill:#386BB3;}
</style>
<g>
	<path class="st0" d="M21.4,51.5c0,0,4.6,0,4.6-4.6V5c0-4.6-4.6-4.6-4.6-4.6H5.2c0,0-4.6,0-4.6,4.6v41.8c0,4.6,4.6,4.6,4.6,4.6H21.4
		z M13.3,49.5c-1.3,0-2.3-1-2.3-2.3c0-1.3,1-2.3,2.3-2.3c1.3,0,2.3,1,2.3,2.3C15.6,48.5,14.6,49.5,13.3,49.5z M9.8,3.2
		c0-0.3,0.1-0.5,0.3-0.5h6.3c0.2,0,0.3,0.2,0.3,0.5v0.1c0,0.3-0.1,0.5-0.3,0.5h-6.3c-0.2,0-0.3-0.2-0.3-0.5V3.2z M2.9,6.1h20.9v37.1
		H2.9V6.1z"/>
</g>
</svg>
