<?xml version="1.0" encoding="utf-8"?>
<!-- Generator: Adobe Illustrator 22.0.0, SVG Export Plug-In . SVG Version: 6.00 Build 0)  -->
<svg version="1.1" id="Layer_1" xmlns="http://www.w3.org/2000/svg" xmlns:xlink="http://www.w3.org/1999/xlink" x="0px" y="0px"
	 viewBox="0 0 42.8 34.5" style="enable-background:new 0 0 42.8 34.5;" xml:space="preserve">
<style type="text/css">
	.st0{fill:#FFFFFF;}
	.st1{fill:url(#SVGID_1_);}
	.st2{fill:url(#SVGID_2_);}
	.st3{fill:url(#SVGID_3_);}
	.st4{fill:url(#SVGID_4_);}
	.st5{fill:url(#SVGID_5_);}
	.st6{fill:url(#SVGID_6_);}
	.st7{fill:#3DACE2;}
	.st8{fill:none;stroke:#3DACE2;stroke-miterlimit:10;}
	.st9{fill:none;stroke:#3DACE2;stroke-width:0.9822;stroke-miterlimit:10;}
	.st10{fill:none;stroke:#3DACE2;stroke-width:1.0252;stroke-miterlimit:10;}
	.st11{fill:none;stroke:#3DACE2;stroke-width:0.9948;stroke-miterlimit:10;}
	.st12{enable-background:new    ;}
	.st13{fill:#386BB3;}
</style>
<g>
	<g>
		<path class="st7" d="M13.3,15.8c-1-0.3-2-0.4-2.9-0.4c-1.5,0-2.7,0.3-3.7,0.8c0.7-2.6,1.4-5.4,3.1-7.5c1.5-1.8,6.5-5,6-7.1
			c-0.1-0.4-0.6-0.9-0.9-1c-3-0.6-6,1.6-8,3.7c-2.7,2.7-4.4,6.3-5.4,9.9c-1.3,4.7-1.7,11.7,1.5,16.1c1.8,2.5,4.4,3.8,7.8,3.9
			c0,0,0,0,0,0c4.2,0,7.9-2.8,9-6.8c0.7-2.4,0.4-4.9-0.9-7.1C17.7,18.1,15.7,16.5,13.3,15.8z"/>
		<path class="st7" d="M35.6,15.8c-1-0.3-2-0.4-2.9-0.4c-1.5,0-2.7,0.3-3.7,0.8c0.7-2.6,1.4-5.4,3.1-7.5c1.5-1.8,6.5-5,6-7.1
			c-0.1-0.4-0.6-0.9-0.9-1c-3-0.6-6,1.6-8,3.7c-2.7,2.7-4.4,6.3-5.4,9.9c-1.3,4.7-1.7,11.7,1.5,16.1c1.8,2.5,4.4,3.8,7.8,3.9
			c0,0,0,0,0,0c4.2,0,7.9-2.8,9-6.8c0.7-2.4,0.4-4.9-0.9-7.1C40,18.1,38,16.5,35.6,15.8z"/>
	</g>
</g>
</svg>
