<?xml version="1.0" encoding="utf-8"?>
<!-- Generator: Adobe Illustrator 22.0.0, SVG Export Plug-In . SVG Version: 6.00 Build 0)  -->
<svg version="1.1" id="Layer_1" xmlns="http://www.w3.org/2000/svg" xmlns:xlink="http://www.w3.org/1999/xlink" x="0px" y="0px"
	 viewBox="0 0 47 35.9" style="enable-background:new 0 0 47 35.9;" xml:space="preserve">
<style type="text/css">
	.st0{fill:#FFFFFF;}
	.st1{fill:url(#SVGID_1_);}
	.st2{fill:url(#SVGID_2_);}
	.st3{fill:url(#SVGID_3_);}
	.st4{fill:url(#SVGID_4_);}
	.st5{fill:url(#SVGID_5_);}
	.st6{fill:url(#SVGID_6_);}
	.st7{fill:#3DACE2;}
	.st8{fill:none;stroke:#3DACE2;stroke-miterlimit:10;}
	.st9{fill:none;stroke:#3DACE2;stroke-width:0.9822;stroke-miterlimit:10;}
	.st10{fill:none;stroke:#3DACE2;stroke-width:1.0252;stroke-miterlimit:10;}
	.st11{fill:none;stroke:#3DACE2;stroke-width:0.9948;stroke-miterlimit:10;}
	.st12{enable-background:new    ;}
	.st13{fill:#386BB3;}
</style>
<g>
	<g>
		<path class="st0" d="M42.4,0.4H4.6c-2.2,0-4,1.8-4,4v26.9c0,2.2,1.8,4,4,4h37.8c2.2,0,4-1.8,4-4V4.4C46.4,2.2,44.6,0.4,42.4,0.4z
			 M41.8,3.1L23.6,21.3L5.2,3.1H41.8z M3.3,30.7V5l12.9,12.8L3.3,30.7z M5.2,32.6l12.9-12.9l4.5,4.5c0.5,0.5,1.4,0.5,1.9,0l4.4-4.4
			l12.9,12.9H5.2z M43.7,30.7L30.8,17.9L43.7,5V30.7z"/>
	</g>
</g>
</svg>
