<?xml version="1.0" encoding="utf-8"?>
<!-- Generator: Adobe Illustrator 22.0.0, SVG Export Plug-In . SVG Version: 6.00 Build 0)  -->
<svg version="1.1" id="Layer_1" xmlns="http://www.w3.org/2000/svg" xmlns:xlink="http://www.w3.org/1999/xlink" x="0px" y="0px"
	 viewBox="0 0 34.4 50.8" style="enable-background:new 0 0 34.4 50.8;" xml:space="preserve">
<style type="text/css">
	.st0{fill:#FFFFFF;}
	.st1{fill:url(#SVGID_1_);}
	.st2{fill:url(#SVGID_2_);}
	.st3{fill:url(#SVGID_3_);}
	.st4{fill:url(#SVGID_4_);}
	.st5{fill:url(#SVGID_5_);}
	.st6{fill:url(#SVGID_6_);}
	.st7{fill:#3DACE2;}
	.st8{fill:none;stroke:#3DACE2;stroke-miterlimit:10;}
	.st9{fill:none;stroke:#3DACE2;stroke-width:0.9822;stroke-miterlimit:10;}
	.st10{fill:none;stroke:#3DACE2;stroke-width:1.0252;stroke-miterlimit:10;}
	.st11{fill:none;stroke:#3DACE2;stroke-width:0.9948;stroke-miterlimit:10;}
	.st12{enable-background:new    ;}
	.st13{fill:#386BB3;}
</style>
<g>
	<g>
		<g>
			<path class="st0" d="M17.2,0.4c-9.4,0-17,7.9-17,17.6c0,3.3,0.9,6.5,2.5,9.3l13.5,22.5c0.3,0.4,0.7,0.7,1.2,0.7c0,0,0,0,0,0
				c0.5,0,1-0.3,1.2-0.7L31.8,27c1.6-2.7,2.4-5.8,2.4-9C34.2,8.3,26.6,0.4,17.2,0.4z M29.4,25.5l-12,20.7L5.2,25.7
				C3.8,23.4,3,20.7,3,18C3,9.9,9.4,3.3,17.2,3.3S31.4,9.9,31.4,18C31.4,20.6,30.7,23.2,29.4,25.5z"/>
		</g>
	</g>
	<g>
		<g>
			<path class="st0" d="M17.2,9.2c-4.7,0-8.5,4-8.5,8.8c0,4.8,3.8,8.8,8.5,8.8c4.8,0,8.5-4,8.5-8.8C25.7,13.1,21.9,9.2,17.2,9.2z
				 M17.2,23.9c-3.1,0-5.7-2.6-5.7-5.9c0-3.2,2.6-5.9,5.7-5.9s5.7,2.7,5.7,5.9C22.9,21.2,20.4,23.9,17.2,23.9z"/>
		</g>
	</g>
</g>
</svg>
